<mxfile host="app.diagrams.net" modified="2021-09-21T01:28:39.004Z" agent="5.0 (X11)" etag="Lq2u11WMUGLwTabRnZbM" version="14.9.0" type="github">
  <diagram id="njk8mj8rX0ue5HU2jwQ1" name="Page-1">
    <mxGraphModel dx="1422" dy="742" grid="1" gridSize="10" guides="1" tooltips="1" connect="1" arrows="1" fold="1" page="1" pageScale="1" pageWidth="3300" pageHeight="4681" math="0" shadow="0">
      <root>
        <mxCell id="0" />
        <mxCell id="1" parent="0" />
      </root>
    </mxGraphModel>
  </diagram>
</mxfile>
